<svg width="96" height="72" viewBox="0 0 96 72" fill="none" xmlns="http://www.w3.org/2000/svg">
<path d="M0 44V39.8C0 37.8889 0.977778 36.3333 2.93333 35.1333C4.88889 33.9333 7.46667 33.3333 10.6667 33.3333C11.2444 33.3333 11.8 33.3444 12.3333 33.3667C12.8667 33.3889 13.3778 33.4444 13.8667 33.5333C13.2444 34.4667 12.7778 35.4444 12.4667 36.4667C12.1556 37.4889 12 38.5556 12 39.6667V44H0ZM16 44V39.6667C16 38.2444 16.3889 36.9444 17.1667 35.7667C17.9444 34.5889 19.0444 33.5556 20.4667 32.6667C21.8889 31.7778 23.5889 31.1111 25.5667 30.6667C27.5444 30.2222 29.6889 30 32 30C34.3556 30 36.5222 30.2222 38.5 30.6667C40.4778 31.1111 42.1778 31.7778 43.6 32.6667C45.0222 33.5556 46.1111 34.5889 46.8667 35.7667C47.6222 36.9444 48 38.2444 48 39.6667V44H16ZM52 44V39.6667C52 38.5111 51.8556 37.4222 51.5667 36.4C51.2778 35.3778 50.8444 34.4222 50.2667 33.5333C50.7556 33.4444 51.2556 33.3889 51.7667 33.3667C52.2778 33.3444 52.8 33.3333 53.3333 33.3333C56.5333 33.3333 59.1111 33.9222 61.0667 35.1C63.0222 36.2778 64 37.8444 64 39.8V44H52ZM10.6667 30.6667C9.2 30.6667 7.94444 30.1444 6.9 29.1C5.85556 28.0556 5.33333 26.8 5.33333 25.3333C5.33333 23.8222 5.85556 22.5556 6.9 21.5333C7.94444 20.5111 9.2 20 10.6667 20C12.1778 20 13.4444 20.5111 14.4667 21.5333C15.4889 22.5556 16 23.8222 16 25.3333C16 26.8 15.4889 28.0556 14.4667 29.1C13.4444 30.1444 12.1778 30.6667 10.6667 30.6667ZM53.3333 30.6667C51.8667 30.6667 50.6111 30.1444 49.5667 29.1C48.5222 28.0556 48 26.8 48 25.3333C48 23.8222 48.5222 22.5556 49.5667 21.5333C50.6111 20.5111 51.8667 20 53.3333 20C54.8444 20 56.1111 20.5111 57.1333 21.5333C58.1556 22.5556 58.6667 23.8222 58.6667 25.3333C58.6667 26.8 58.1556 28.0556 57.1333 29.1C56.1111 30.1444 54.8444 30.6667 53.3333 30.6667ZM32 28C29.7778 28 27.8889 27.2222 26.3333 25.6667C24.7778 24.1111 24 22.2222 24 20C24 17.7333 24.7778 15.8333 26.3333 14.3C27.8889 12.7667 29.7778 12 32 12C34.2667 12 36.1667 12.7667 37.7 14.3C39.2333 15.8333 40 17.7333 40 20C40 22.2222 39.2333 24.1111 37.7 25.6667C36.1667 27.2222 34.2667 28 32 28Z" fill="#C48E1A"/>
<rect x="42" y="2" width="44" height="44" rx="22" fill="#F9F6F0"/>
<rect x="42" y="2" width="44" height="44" rx="22" stroke="#F9F6F0" stroke-width="4"/>
<path d="M56 36L64 29.9L72 36L69 26.1L77 20.4H67.2L64 10L60.8 20.4H51L59 26.1L56 36ZM64 44C61.2333 44 58.6333 43.475 56.2 42.425C53.7667 41.375 51.65 39.95 49.85 38.15C48.05 36.35 46.625 34.2333 45.575 31.8C44.525 29.3667 44 26.7667 44 24C44 21.2333 44.525 18.6333 45.575 16.2C46.625 13.7667 48.05 11.65 49.85 9.85C51.65 8.05 53.7667 6.625 56.2 5.575C58.6333 4.525 61.2333 4 64 4C66.7667 4 69.3667 4.525 71.8 5.575C74.2333 6.625 76.35 8.05 78.15 9.85C79.95 11.65 81.375 13.7667 82.425 16.2C83.475 18.6333 84 21.2333 84 24C84 26.7667 83.475 29.3667 82.425 31.8C81.375 34.2333 79.95 36.35 78.15 38.15C76.35 39.95 74.2333 41.375 71.8 42.425C69.3667 43.475 66.7667 44 64 44Z" fill="#C48E1A"/>
</svg>
